<?xml version="1.0" encoding="UTF-8" standalone="no"?>
<!DOCTYPE svg PUBLIC "-//W3C//DTD SVG 1.1//EN" "http://www.w3.org/Graphics/SVG/1.1/DTD/svg11.dtd">
<svg width="100%" height="100%" viewBox="0 0 3232 212" version="1.1" xmlns="http://www.w3.org/2000/svg" xmlns:xlink="http://www.w3.org/1999/xlink" xml:space="preserve" xmlns:serif="http://www.serif.com/" style="fill-rule:evenodd;clip-rule:evenodd;stroke-linejoin:round;stroke-miterlimit:2;">
    <g transform="matrix(-1,-1.22465e-16,1.22465e-16,-1,3228.39,211.44)">
        <path d="M3225.37,150.76C3233.65,138.413 3230.46,213 3230.46,213L-19.478,211.908L-19.372,161.855C31.847,156.164 64.376,100.312 78.299,107.274C95.779,116.014 105.116,118.735 109.899,90.038C158.852,71.68 192.904,49.518 210.443,67.056C212.528,69.141 244.167,67.685 247.788,78.547C248.776,81.512 252.097,91.474 270.769,110.146C273.642,113.019 347.382,123.553 354.077,124.51C384.222,150.348 387.656,141.151 427.087,144.685L439.026,121.637C461.306,119.009 484.05,124.266 506.329,121.637C510.216,121.179 502.288,110.731 543.674,90.038C547.38,88.185 547.434,90.362 595.383,87.165C620.006,72.391 622.793,66.816 624.11,64.183C627.43,57.542 655.135,2.133 710.29,98.656C765.32,104.77 751.571,133.565 773.489,136.001C817.93,140.938 822.076,127.196 856.797,153.237C859.43,155.211 859.864,152.567 897.015,161.855C921.013,167.854 925.957,178.659 934.36,161.855C943.023,144.528 992.027,215.795 1003.3,181.964C1009.84,162.367 1056.12,186.047 1066.5,170.473C1067.5,168.979 1069.98,173.314 1083.74,156.109C1114.16,118.085 1172.88,145.731 1175.66,144.619C1176.14,144.428 1180.8,134.838 1192.9,138.873C1203.59,142.436 1201.79,145.622 1213.01,147.491C1301.94,162.314 1309.54,148.076 1316.43,161.855C1322.74,174.483 1325.84,165.247 1339.41,161.855C1348.09,159.684 1352.77,130.643 1356.64,130.255C1396.37,126.283 1398.57,144.318 1405.48,144.619C1448.12,146.473 1455.06,165.106 1483.04,133.128C1510.8,101.409 1523.27,124.502 1557.73,98.656C1597.09,69.14 1600.77,79.925 1649.66,75.674C1671.88,73.742 1671.27,19.546 1744.46,35.457C1750.45,36.759 1749.96,48.518 1755.95,49.82C1767.22,57.334 1773.3,48.833 1790.42,72.802C1811.41,102.188 1898.01,86.847 1902.45,87.165C1910,87.704 1906.77,97.58 1991.51,118.765C2019.12,125.666 2063.55,121.867 2074.82,133.128C2095.27,153.584 2109.13,121.426 2126.53,144.619C2136.53,157.954 2176.43,160.783 2192.6,144.619C2212.77,124.45 2214.77,114.398 2238.56,130.255C2271.68,152.332 2276.86,164.731 2290.27,144.619C2291.88,142.2 2296.2,135.723 2324.74,133.128C2370.01,129.013 2370.71,144.623 2382.19,156.109C2468.37,121.637 2503.47,126.685 2589.65,92.213C2592.08,91.24 2617.48,81.082 2621.25,83.595C2624.09,85.49 2669.37,60.743 2686.7,84.292C2774.66,54.971 2770.71,45.394 2778.62,44.075C2787.45,42.603 2840.68,64.754 2882.04,44.075C2907.75,31.219 2948.75,83.548 2959.6,87.165C2983.94,95.278 2984.91,85.066 3008.44,92.91C3029.83,100.041 3088.56,167.756 3129.09,147.491C3138.9,142.589 3153.33,145.336 3157.82,141.746C3160.99,139.208 3162.39,133.531 3166.44,133.128C3192.33,130.548 3199.48,153.34 3225.37,150.76Z" style="fill:rgb(28,35,43);"/>
    </g>
</svg>
