<?xml version="1.0" encoding="UTF-8" standalone="no"?>
<!DOCTYPE svg PUBLIC "-//W3C//DTD SVG 1.1//EN" "http://www.w3.org/Graphics/SVG/1.1/DTD/svg11.dtd">
<svg width="100%" height="100%" viewBox="0 0 3232 212" version="1.1" xmlns="http://www.w3.org/2000/svg" xmlns:xlink="http://www.w3.org/1999/xlink" xml:space="preserve" xmlns:serif="http://www.serif.com/" style="fill-rule:evenodd;clip-rule:evenodd;stroke-linejoin:round;stroke-miterlimit:2;">
    <g transform="matrix(1,0,0,1,16.8052,1.812)">
        <path d="M3225.37,150.76C3233.65,138.413 3230.46,213 3230.46,213L-19.478,211.908L-19.372,161.855C31.847,156.164 64.376,100.312 78.299,107.274C95.779,116.014 105.116,118.735 109.899,90.038C158.852,71.68 192.904,49.518 210.443,67.056C212.528,69.141 244.167,67.685 247.788,78.547C248.776,81.512 252.097,91.474 270.769,110.146C273.642,113.019 347.382,123.553 354.077,124.51C384.222,150.348 387.656,141.151 427.087,144.685L439.026,121.637C461.306,119.009 484.05,124.266 506.329,121.637C510.216,121.179 502.288,110.731 543.674,90.038C547.38,88.185 547.434,90.362 595.383,87.165C620.006,72.391 622.793,66.816 624.11,64.183C627.43,57.542 655.135,2.133 710.29,98.656C765.32,104.77 751.571,133.565 773.489,136.001C817.93,140.938 822.076,127.196 856.797,153.237C859.43,155.211 859.864,152.567 897.015,161.855C921.013,167.854 925.957,178.659 934.36,161.855C943.023,144.528 992.027,215.795 1003.3,181.964C1009.84,162.367 1056.12,186.047 1066.5,170.473C1067.5,168.979 1069.98,173.314 1083.74,156.109C1114.16,118.085 1172.88,145.731 1175.66,144.619C1176.14,144.428 1180.8,134.838 1192.9,138.873C1203.59,142.436 1201.79,145.622 1213.01,147.491C1301.94,162.314 1309.54,148.076 1316.43,161.855C1322.74,174.483 1325.84,165.247 1339.41,161.855C1348.09,159.684 1352.77,130.643 1356.64,130.255C1396.37,126.283 1398.57,144.318 1405.48,144.619C1448.12,146.473 1455.06,165.106 1483.04,133.128C1510.8,101.409 1523.27,124.502 1557.73,98.656C1597.09,69.14 1600.77,79.925 1649.66,75.674C1671.88,73.742 1671.27,19.546 1744.46,35.457C1750.45,36.759 1749.96,48.518 1755.95,49.82C1767.22,57.334 1773.3,48.833 1790.42,72.802C1811.41,102.188 1898.01,86.847 1902.45,87.165C1910,87.704 1906.77,97.58 1991.51,118.765C2019.12,125.666 2063.55,121.867 2074.82,133.128C2095.27,153.584 2109.13,121.426 2126.53,144.619C2136.53,157.954 2176.43,160.783 2192.6,144.619C2212.77,124.45 2214.77,114.398 2238.56,130.255C2271.68,152.332 2276.86,164.731 2290.27,144.619C2291.88,142.2 2296.2,135.723 2324.74,133.128C2370.01,129.013 2370.71,144.623 2382.19,156.109C2468.37,121.637 2503.47,126.685 2589.65,92.213C2592.08,91.24 2617.48,81.082 2621.25,83.595C2624.09,85.49 2669.37,60.743 2686.7,84.292C2774.66,54.971 2770.71,45.394 2778.62,44.075C2787.45,42.603 2840.68,64.754 2882.04,44.075C2907.75,31.219 2948.75,83.548 2959.6,87.165C2983.94,95.278 2984.91,85.066 3008.44,92.91C3029.83,100.041 3088.56,167.756 3129.09,147.491C3138.9,142.589 3153.33,145.336 3157.82,141.746C3160.99,139.208 3162.39,133.531 3166.44,133.128C3192.33,130.548 3199.48,153.34 3225.37,150.76Z" style="fill:rgb(133,199,199);"/>
        <path d="M2000.92,120.65C2028.28,125.024 2064.76,123.076 2074.82,133.128C2095.27,153.584 2109.13,121.426 2126.53,144.619C2136.53,157.954 2176.43,160.783 2192.6,144.619C2212.77,124.45 2214.77,114.398 2238.56,130.255C2271.68,152.332 2276.86,164.731 2290.27,144.619C2291.88,142.2 2296.2,135.723 2324.74,133.128C2370.01,129.013 2370.71,144.623 2382.19,156.109C2468.37,121.637 2503.47,126.685 2589.65,92.213C2592.08,91.24 2617.48,81.082 2621.25,83.595C2623.93,85.385 2664.48,63.404 2683.57,80.81C2678.93,82.781 2674.08,85.027 2669,87.568C2664.94,89.597 2652.35,91.712 2644.03,93.769C2640.11,94.737 2637.08,95.769 2635.98,96.682C2592.61,132.825 2549.82,134.786 2510.66,136.552C2484.15,137.748 2459.28,138.876 2436.96,150.04C2427.4,154.817 2406.5,157.385 2379.17,158.661C2314.77,161.669 2215,157.212 2142.87,155.406C2062.21,153.386 2026.29,137.668 2000.92,120.65Z" style="fill:rgb(28,35,43);"/>
        <path d="M1687.22,41.277C1699.03,33.599 1716.28,29.33 1744.46,35.457C1750.45,36.759 1749.96,48.518 1755.95,49.82C1766.1,56.589 1772.04,50.36 1785.64,66.586C1758.8,66.427 1744.6,68.143 1736.75,68.385C1733.19,68.495 1731.09,68.395 1729.74,67.41C1728.94,66.827 1728.48,65.916 1728.05,64.636C1727.82,63.954 1727.24,63.112 1726.27,62.202C1725.12,61.121 1723.37,59.851 1721.18,58.466C1713.04,53.331 1698.63,46.459 1687.22,41.277Z" style="fill:rgb(28,35,43);"/>
        <path d="M1482.17,134.112C1477.12,134.37 1471.44,134.668 1464.92,135.03C1464.09,135.076 1463.39,134.442 1463.34,133.616C1463.29,132.789 1463.93,132.081 1464.75,132.035C1472.6,131.599 1479.22,131.257 1484.99,130.965C1484.35,131.656 1483.7,132.377 1483.04,133.128C1482.75,133.461 1482.46,133.789 1482.17,134.112Z" style="fill:rgb(28,35,43);"/>
        <path d="M-19.441,194.226L-19.419,184.222C-15.66,184.728 -11.887,185.172 -8.228,185.224C-2.672,185.302 2.628,184.505 7.284,181.871C11.96,179.226 16.016,174.735 18.982,167.318C19.867,165.107 22.53,163.383 25.769,161.899C34.133,158.066 46.479,156.316 48.265,156.061C65.014,153.668 74.692,151.243 80.424,149.117C86.578,146.833 88.456,144.798 89.482,143.459C89.741,143.12 89.887,142.821 90.086,142.607C108.535,140.183 124.301,130.342 140.522,122.157C156.412,114.14 172.756,107.735 192.73,112.173C207.905,115.546 213.55,121.424 219.249,127.221C225.271,133.348 231.347,139.393 247.595,142.643C248.423,142.808 248.714,143.181 250.148,144.326C252.806,146.451 258.512,150.929 273.891,160.715C278.896,163.9 283.883,166.469 288.852,168.531C220.654,182.682 164.585,165.521 122.162,159.679C92.689,155.62 69.695,157.061 53.569,177.219C46.692,185.816 41.303,190.645 35.546,193.205C29.813,195.755 23.738,196.039 15.543,195.704C6.851,195.349 -4.148,194.278 -19.441,194.226Z" style="fill:rgb(28,35,43);"/>
        <path d="M977.459,185.037C988.729,192.356 998.895,195.184 1003.3,181.964C1009.84,162.367 1056.12,186.047 1066.5,170.473C1067.5,168.979 1069.98,173.314 1083.74,156.109C1114.16,118.085 1172.88,145.731 1175.66,144.619C1176.14,144.428 1180.8,134.838 1192.9,138.873C1203.59,142.436 1201.79,145.622 1213.01,147.491C1301.94,162.314 1309.54,148.076 1316.43,161.855C1319.93,168.855 1322.44,169.137 1326.3,167.419C1384.04,194.951 1431.5,195.994 1458.12,190.938C1469.91,188.699 1477.69,185.192 1480.69,182.273L1480.71,182.264C1481.84,181.63 1486.23,179.983 1492.98,177.76C1523.51,167.712 1601.66,146.363 1648.99,155.828C1810.18,188.065 1884.45,172.157 1930.79,163.814C1961.12,158.353 1979.28,156.073 2002.39,173.406C2024.67,190.113 2035.16,190.03 2052.7,187.312C2064.09,185.549 2078.53,182.631 2101.46,182.631C2101.7,182.631 2101.91,182.578 2102.11,182.484C2102.58,182.493 2103.07,182.493 2103.57,182.486C2116.5,182.292 2141.36,176.946 2199.72,173.704C2274.84,169.531 2330.54,176.98 2358.23,183.882C2365.25,185.633 2370.44,187.339 2373.67,188.812C2374.66,189.269 2375.46,189.696 2376.05,190.096C2376.41,190.342 2376.69,190.524 2376.79,190.726C2377.78,192.712 2380.16,194.457 2383.76,195.782C2388.58,197.553 2395.67,198.712 2404.09,199.326C2436.42,201.684 2488.44,196.076 2503.74,188.422C2505.32,187.634 2508.58,186.888 2513.21,186.12C2524.48,184.253 2543.56,182.448 2566.49,180.695C2643.22,174.827 2762.78,169.525 2777.24,164.704C2858.45,137.633 2944.56,141.759 2990.28,164.623C2998.47,168.715 3001.58,171.717 3004.71,174.733C3008,177.904 3011.32,181.091 3020.03,185.447C3020.81,185.837 3022.54,186.207 3025.12,186.463C3030.54,187.002 3040.07,187.232 3052.38,187.229C3096.92,187.217 3177.92,184.161 3231.06,181.924C3231.12,197.581 3230.46,213 3230.46,213L-19.478,211.908L-19.447,197.225C-4.2,197.277 6.761,198.348 15.421,198.702C24.17,199.059 30.644,198.669 36.765,195.947C42.861,193.235 48.63,188.195 55.912,179.093C71.369,159.771 93.503,158.76 121.753,162.651C165.178,168.631 222.818,186.304 293.057,170.695C293.298,170.642 293.513,170.532 293.691,170.384C310.264,176.213 326.638,176.774 342.833,176.158C365.01,175.314 386.838,172.223 408.346,177.958C415.897,179.972 421.387,181.896 425.766,182.648C428.974,183.2 431.638,183.136 434.072,182.181C437.951,180.66 441.334,176.775 445.349,168.774C445.638,168.568 448.953,166.202 452.354,164.15C461.024,158.919 474.445,151.494 477.174,150.057L477.338,149.972C510.602,148.931 517.5,153.63 539.117,142.998C539.257,143.026 539.403,143.034 539.553,143.02C595.813,137.662 589.312,141.535 609.007,125.779C618.025,118.564 623.793,115.43 629.032,115.4C632.866,115.378 636.355,117.057 640.615,119.819C645.166,122.77 650.516,126.943 657.811,131.806C658.843,132.494 659.746,132.619 661.102,132.469C664.75,132.068 673.051,129.444 709.145,141.254C725.59,149.822 744.551,158.402 753.688,162.84C756.401,164.158 758.205,165.06 758.705,165.476C766.447,171.928 776.222,174.589 786.938,175.277C797.403,175.949 808.774,174.742 819.956,173.495C830.961,172.269 841.78,171.003 851.338,171.542C860.571,172.062 868.609,174.252 874.363,180.007C874.738,180.382 875.384,180.77 876.314,181.086C877.892,181.621 880.503,182.061 883.852,182.409C902.009,184.295 942.861,183.754 954.094,186.452C954.224,186.54 954.315,186.681 954.418,186.824C954.69,187.202 954.937,187.655 955.22,188.112C955.936,189.271 956.848,190.425 958.384,191.065C960.412,191.911 963.791,191.882 969.92,188.817C974.292,186.632 974.932,185.947 977.459,185.037Z" style="fill:rgb(28,35,43);"/>
        <path d="M-19.413,181.239L-19.372,161.855C31.847,156.164 64.376,100.312 78.299,107.274C95.779,116.014 105.116,118.735 109.899,90.038C158.852,71.68 192.904,49.518 210.443,67.056C212.528,69.141 244.167,67.685 247.788,78.547C248.776,81.512 252.097,91.474 270.769,110.146C273.642,113.019 347.382,123.553 354.077,124.51C384.222,150.348 387.656,141.151 427.087,144.685L439.026,121.637C461.306,119.009 484.05,124.266 506.329,121.637C510.216,121.179 502.288,110.731 543.674,90.038C547.38,88.185 547.434,90.362 595.383,87.165C620.006,72.391 622.793,66.816 624.11,64.183C627.43,57.542 655.135,2.133 710.29,98.656C765.32,104.77 751.571,133.565 773.489,136.001C817.93,140.938 822.076,127.196 856.797,153.237C859.43,155.211 859.864,152.567 897.015,161.855C921.013,167.854 925.957,178.659 934.36,161.855C939.342,151.89 957.668,171.229 974.485,183.025C973.084,183.701 971.793,184.527 968.579,186.134C963.933,188.457 961.348,188.922 959.714,188.363C958.26,187.865 957.785,186.524 957.191,185.578C956.64,184.7 956.022,184.017 955.237,183.668C955.157,183.633 955.075,183.604 954.991,183.583C945.31,181.163 912.341,181.244 891.934,180.03C886.786,179.724 882.453,179.336 879.533,178.794C878.629,178.626 877.87,178.446 877.279,178.245C876.915,178.121 876.631,178.032 876.485,177.885C870.229,171.63 861.543,169.112 851.507,168.546C841.797,167.999 830.804,169.268 819.623,170.514C808.619,171.74 797.429,172.944 787.13,172.283C777.081,171.638 767.886,169.222 760.625,163.171C760.062,162.702 758.058,161.628 754.998,160.142C746.393,155.962 729.043,148.098 713.328,140.041C713.17,139.645 712.845,139.318 712.41,139.173C711.698,138.936 710.996,138.704 710.304,138.477C706.055,136.259 701.98,134.044 698.295,131.904C692.619,128.607 687.879,125.5 684.9,122.839C683.229,121.347 682.101,120.11 681.947,119.027C679.975,105.226 679.398,105.628 670.647,95.127C669.77,94.074 668.369,93.128 666.511,92.372C664.016,91.357 660.645,90.652 656.719,90.353C641.78,89.214 618.692,93.955 606.212,108.514C599.721,116.087 592.931,118.044 584.564,120.089C575.772,122.238 565.301,124.442 551.746,132.575C518.195,152.706 516.033,145.722 476.921,146.984L476.451,147.075C476.39,147.097 476.155,147.203 475.777,147.403C473.031,148.848 459.527,156.318 450.804,161.582C447.847,163.366 445.432,164.904 444.141,165.879C443.32,166.499 442.868,167.03 442.728,167.309C439.173,174.418 436.406,178.044 432.977,179.388C430.478,180.368 427.683,180.082 424.092,179.243C420.155,178.324 415.346,176.72 409.119,175.06C387.319,169.246 365.197,172.305 342.719,173.16C320.676,173.998 298.276,172.677 275.502,158.184C257.745,146.885 253.015,142.74 250.907,141.096C249.735,140.182 249.169,139.898 248.183,139.701C232.824,136.629 227.082,130.91 221.388,125.118C215.371,118.997 209.403,112.805 193.381,109.245C172.65,104.638 155.663,111.157 139.171,119.479C123.131,127.572 107.579,137.398 89.296,139.684C89.076,139.711 88.864,139.787 88.677,139.907C88.314,140.138 88.013,140.432 87.719,140.805C86.119,142.828 84.215,147.894 47.84,153.091C45.988,153.355 33.193,155.197 24.519,159.172C20.456,161.034 17.307,163.43 16.197,166.204C13.546,172.832 9.985,176.896 5.807,179.26C1.611,181.633 -3.178,182.295 -8.185,182.224C-11.856,182.172 -15.641,181.737 -19.413,181.239Z" style="fill:rgb(28,35,43);"/>
        <path d="M2729.04,69.07C2773.56,51.493 2772.28,45.132 2778.62,44.075C2787.45,42.603 2840.68,64.754 2882.04,44.075C2907.75,31.219 2948.75,83.548 2959.6,87.165C2983.94,95.278 2984.91,85.066 3008.44,92.91C3029.83,100.041 3088.56,167.756 3129.09,147.491C3138.9,142.589 3153.33,145.336 3157.82,141.746C3160.99,139.208 3162.39,133.531 3166.44,133.128C3185.85,131.194 3194.72,143.517 3208.86,148.723C3153.51,151.375 3051.64,155.961 3050.63,155.842C3050.09,155.778 3049.72,155.543 3049.27,155.196C3048.81,154.85 3048.3,154.41 3047.63,153.879C3043.63,150.695 3034.09,144.258 2997.27,135.052C2992.41,133.837 2991.1,131.249 2989.64,128.943C2988.72,127.485 2987.74,126.123 2986.17,125.069C2984.61,124.024 2982.46,123.261 2979.12,123.109C2879.66,118.588 2829.44,96.207 2790.62,81.698C2768.72,73.514 2750.41,67.804 2729.04,69.07Z" style="fill:rgb(28,35,43);"/>
        <path d="M1484.99,130.965C1511.4,102.476 1524.09,123.89 1557.73,98.656C1597.09,69.14 1600.77,79.925 1649.66,75.674C1662.61,74.548 1667.8,55.68 1684.36,43.274C1693.53,47.41 1705.05,52.815 1713.64,57.537C1717.57,59.701 1720.89,61.714 1723.04,63.391C1724.19,64.284 1725,64.98 1725.2,65.584C1725.87,67.584 1726.72,68.923 1727.97,69.833C1729.69,71.087 1732.31,71.523 1736.84,71.383C1744.91,71.135 1759.7,69.325 1788.06,69.608C1788.82,70.604 1789.61,71.666 1790.42,72.802C1811.41,102.188 1898.01,86.847 1902.45,87.165C1910,87.704 1906.77,97.58 1991.51,118.765C1992.22,118.942 1992.94,119.112 1993.67,119.275C2019.72,137.933 2055.1,156.208 2142.79,158.405C2214.99,160.213 2314.85,164.668 2379.31,161.658C2407.22,160.355 2428.54,157.602 2438.3,152.723C2460.26,141.745 2484.73,140.725 2510.8,139.549C2550.52,137.758 2593.9,135.655 2637.9,98.986C2638.83,98.216 2641.44,97.498 2644.75,96.681C2653.28,94.572 2666.18,92.332 2670.34,90.251C2675.75,87.547 2680.89,85.184 2685.8,83.136C2686.1,83.507 2686.41,83.893 2686.7,84.292C2698.54,80.344 2708.72,76.754 2717.48,73.494C2743.75,68.934 2764.21,75.031 2789.57,84.508C2828.58,99.087 2879.04,121.563 2978.99,126.106C2981.59,126.224 2983.28,126.745 2984.49,127.559C2985.69,128.363 2986.4,129.435 2987.1,130.546C2988.89,133.378 2990.57,136.47 2996.54,137.963C3037.65,148.241 3044,154.856 3047.19,157.384C3048.26,158.225 3049.08,158.68 3050.28,158.821C3051.43,158.957 3182.82,153.05 3228.49,150.768C3230.29,154.733 3230.92,166.624 3231.04,178.964C3227.81,179.099 3221.06,179.377 3221.06,179.377C3221.06,179.377 3094.22,184.218 3052.38,184.229C3040.2,184.232 3030.77,184.01 3025.42,183.478C3023.38,183.275 3021.99,183.073 3021.38,182.764C3013.08,178.618 3009.92,175.589 3006.79,172.572C3003.49,169.4 3000.23,166.241 2991.63,161.94C2945.41,138.829 2858.38,134.496 2776.29,161.858C2761.88,166.662 2642.72,171.856 2566.26,177.704C2543.22,179.465 2524.05,181.284 2512.72,183.161C2507.67,183.998 2504.12,184.878 2502.4,185.739C2487.34,193.272 2436.13,198.654 2404.31,196.334C2396.23,195.745 2389.42,194.666 2384.8,192.967C2382.12,191.979 2380.21,190.865 2379.47,189.385C2379.21,188.868 2378.66,188.245 2377.74,187.617C2376.17,186.549 2373.31,185.264 2369.22,183.901C2346.79,176.433 2285.93,165.91 2199.55,170.708C2141.27,173.946 2116.44,179.293 2103.52,179.486C2099.55,179.545 2096.79,179.123 2094.52,177.878C2092.25,176.629 2090.5,174.572 2088.46,171.519C2084.83,166.07 2082.24,163.669 2070.64,162.269C2059.74,160.954 2040.43,160.493 2003.36,158.808C2001.35,158.717 2000.17,157.814 1997.4,156.348C1990.24,152.56 1973.65,144.921 1914.29,135.028C1887.11,130.497 1887.36,136.186 1836.99,126.112C1816.43,122 1805.78,119.467 1793.94,121.088C1782.12,122.705 1769.09,128.472 1743.81,141.116C1730.31,147.866 1717.17,143.785 1699.29,137.646C1671.63,128.152 1633.01,113.517 1565.77,123.123C1522.85,129.254 1517.23,129.331 1484.99,130.965ZM2706.89,146.597C2706.94,146.596 2706.98,146.593 2707.02,146.588C2733.85,143.607 2748.55,138.943 2756.12,134.233C2761.7,130.763 2763.63,127.14 2763.83,124.07C2764.03,120.825 2762.29,118.033 2760.25,116.268C2758.82,115.04 2757.25,114.327 2756.12,114.193C2737.05,111.951 2720.52,112.547 2706.79,114.757C2684.08,118.412 2668.99,126.528 2662.69,133.558C2659.6,137.009 2658.57,140.326 2659.3,142.874C2659.59,143.856 2660.24,144.678 2661.28,145.311C2662.43,146.018 2664.14,146.498 2666.24,146.764C2673.44,147.674 2685.68,146.23 2693.33,146.926C2693.39,146.931 2693.45,146.933 2693.5,146.932L2706.89,146.597Z" style="fill:rgb(28,35,43);"/>
        <path d="M2706.76,143.599L2693.51,143.93C2685.89,143.256 2673.76,144.69 2666.62,143.787C2665.26,143.616 2664.11,143.365 2663.24,142.963C2662.72,142.721 2662.31,142.468 2662.18,142.04C2661.91,141.102 2662.11,140.025 2662.66,138.852C2663.66,136.686 2665.81,134.304 2668.98,131.894C2682.1,121.929 2712.22,112.05 2755.76,117.173C2756.67,117.279 2757.94,118.077 2759,119.231C2760.63,121.012 2761.7,123.769 2759.85,126.801C2758.44,129.128 2755.51,131.539 2750.35,133.905C2742.15,137.672 2728.55,141.174 2706.76,143.599L2706.76,143.599Z" style="fill:rgb(28,35,43);"/>
        <path d="M1329.7,165.712C1332.25,164.396 1335.37,162.866 1339.41,161.855C1348.09,159.684 1352.77,130.643 1356.64,130.255C1396.37,126.283 1398.57,144.318 1405.48,144.619C1447.67,146.454 1454.91,164.719 1482.17,134.112C1517.22,132.318 1521.85,132.427 1566.2,126.093C1632.73,116.587 1670.95,131.089 1698.31,140.484C1717.11,146.938 1730.95,150.896 1745.15,143.799C1769.98,131.383 1782.74,125.648 1794.34,124.06C1805.92,122.476 1816.32,125.036 1836.4,129.054C1886.84,139.14 1886.58,133.451 1913.8,137.987C1980.9,149.171 1992.76,157.369 1998.58,160.384C2000.27,161.257 2001.52,161.728 2003.23,161.805C2040.17,163.485 2059.42,163.936 2070.28,165.247C2080.43,166.473 2082.78,168.412 2085.97,173.183C2087.98,176.205 2089.81,178.34 2091.93,179.803C2074.16,180.457 2062.07,182.826 2052.25,184.348C2035.48,186.944 2025.48,186.968 2004.19,171.006C1980.32,153.101 1961.59,155.22 1930.26,160.861C1884.1,169.171 1810.12,184.996 1649.58,152.886C1601.8,143.33 1522.87,164.765 1492.04,174.911C1485.82,176.958 1481.55,178.551 1479.85,179.34C1479.18,179.65 1478.8,179.926 1478.65,180.07C1475.93,182.793 1468.6,185.894 1457.56,187.991C1431.64,192.915 1385.69,191.886 1329.7,165.712Z" style="fill:rgb(28,35,43);"/>
        <path d="M1326.3,167.419C1325.59,167.081 1324.87,166.739 1324.16,166.392C1323.42,166.03 1323.11,165.132 1323.47,164.387C1323.83,163.643 1324.73,163.332 1325.47,163.694C1326.89,164.382 1328.3,165.055 1329.7,165.712C1328.44,166.363 1327.32,166.962 1326.3,167.419Z" style="fill:rgb(28,35,43);"/>
        <path d="M696.227,134.171C674.501,128.073 666.357,128.726 662.43,129.259C661.655,129.365 661.054,129.469 660.545,129.509C660.126,129.543 659.814,129.536 659.475,129.31C650.675,123.443 644.688,118.581 639.529,115.637C635.845,113.534 632.543,112.38 629.015,112.4C623.322,112.433 616.932,115.597 607.133,123.437C588.72,138.167 593.708,135.108 545.924,139.416C548.21,138.146 550.655,136.728 553.289,135.147C566.498,127.222 576.709,125.097 585.276,123.003C594.269,120.805 601.514,118.606 608.49,110.467C620.34,96.642 642.306,92.263 656.491,93.344C660.053,93.615 663.117,94.23 665.381,95.151C666.696,95.686 667.722,96.303 668.343,97.047C676.552,106.898 677.127,106.504 678.977,119.451C679.149,120.659 679.965,122.111 681.448,123.675C684.253,126.634 689.585,130.284 696.227,134.171Z" style="fill:rgb(28,35,43);"/>
        <path d="M974.485,183.025C975.715,182.431 977.03,181.952 979.804,181.159C980.6,180.932 981.431,181.393 981.659,182.189C981.886,182.985 981.424,183.816 980.628,184.044C979.26,184.435 978.264,184.747 977.459,185.037C976.475,184.398 975.483,183.725 974.485,183.025Z" style="fill:rgb(28,35,43);"/>
    </g>
</svg>
