<svg width="99" height="99" viewBox="0 0 99 99" fill="none" xmlns="http://www.w3.org/2000/svg">
<circle cx="49.147" cy="49.147" r="49.147" fill="#1C232B"/>
<path d="M76.0378 24.6401H22.2561C19.2869 24.6401 16.8779 26.7931 16.8779 29.4469V61.4916C16.8779 64.1453 19.2869 66.2983 22.2561 66.2983H43.7688L41.9761 71.105H33.9088C32.4186 71.105 31.2197 72.1765 31.2197 73.5084C31.2197 74.8403 32.4186 75.9118 33.9088 75.9118H64.3851C65.8753 75.9118 67.0742 74.8403 67.0742 73.5084C67.0742 72.1765 65.8753 71.105 64.3851 71.105H56.3179L54.5251 66.2983H76.0378C79.007 66.2983 81.416 64.1453 81.416 61.4916V29.4469C81.416 26.7931 79.007 24.6401 76.0378 24.6401ZM74.2451 59.8894H24.0488V31.0491H74.2451V59.8894Z" fill="#CBDA5A"/>
</svg>
