<svg width="290" height="85" viewBox="0 0 290 85" fill="none" xmlns="http://www.w3.org/2000/svg">
<path d="M24.9578 0L8.63081 1.65086L0 63.0587H16.1746L19.9792 35.2445C23.5446 30.2098 26.5232 28.3113 29.1755 28.3113C31.1756 28.3113 32.3277 29.3015 32.3277 31.2818C32.3277 34.9969 29.9363 38.71 20.6532 41.93L27.11 63.0587H44.6761L37.5455 43.4153C45.0241 39.9478 48.5894 34.9131 48.5894 28.1457C48.5894 21.7077 43.9369 17.3338 35.9799 17.3338C30.7623 17.3338 26.1969 19.0665 21.6532 23.606L24.9578 0Z" fill="white"/>
<path d="M80.3304 17.5812C75.5258 17.5812 70.9603 20.8832 68.0689 26.8261L67.9821 18.9846H53.9595L47.8288 63.0587H63.9167L66.5689 44.4873C68.5473 38.6282 71.0474 33.4279 76.352 33.4279C77.6782 33.4279 78.7434 33.6754 80.1566 34.0886L84.722 18.3238C83.3088 17.8288 82.1566 17.5812 80.3304 17.5812Z" fill="white"/>
<path d="M104.527 18.9846H88.4613L82.3089 63.0587H98.3967L104.527 18.9846Z" fill="white"/>
<path d="M129.072 17.3337C116.376 17.3337 109.179 24.0193 109.179 32.5195C109.179 39.3708 112.984 43.2495 120.115 45.8088C127.072 48.2842 128.485 48.7793 128.485 50.6778C128.485 52.7419 126.246 53.4027 123.593 53.4027C118.55 53.4027 114.636 51.2567 111.832 48.7793L104.027 56.9501C108.092 61.5735 115.636 64.7097 123.593 64.7097C139.833 64.7097 144.312 55.8781 144.312 48.6974C144.312 41.7643 140.333 37.5541 133.376 35.2444C126.159 32.8509 125.094 32.4376 125.094 30.8685C125.094 29.549 126.159 28.6407 129.224 28.6407C132.463 28.6407 136.29 29.7965 139.355 31.695L146.225 23.1109C142.073 19.7272 135.942 17.3337 129.072 17.3337Z" fill="white"/>
<path d="M170.27 51.9154C168.27 51.9154 167.205 50.8434 167.77 46.7171L170.096 30.0441H178.227L181.531 18.9846H171.596L173.161 7.84132L158.9 9.49219L156.247 18.9846H150.291L148.79 30.0441H154.008L151.617 46.7171C150.03 58.3535 154.856 64.7097 165.052 64.7097C169.009 64.7097 174.487 63.5538 178.466 61.2421L174.487 50.8435C172.987 51.5042 171.748 51.9154 170.27 51.9154Z" fill="white"/>
<path d="M229.621 18.9846H212.794L201.51 52.9894L200.597 18.9846H183.857L190.075 63.0587H195.706C192.553 68.0115 188.749 69.91 180.292 70.7345L180.618 81.8777C195.206 81.4645 205.337 75.274 210.62 63.0587L229.621 18.9846Z" fill="white"/>
<path d="M265.528 16.7184C248.58 16.7184 242.25 34.0986 242.25 47.1101C242.318 58.2112 247.638 65.3089 256.459 65.3089C261.937 65.3089 266.718 61.9416 269.973 57.1195L268.94 65.0361C267.414 76.4101 261.42 79.5045 254.911 79.5045C249.77 79.5045 245.505 77.5941 242.25 75.6816L240.275 79.6872C244.203 82.1433 249.433 84.144 255.09 84.144C264.406 84.144 271.858 79.3218 273.834 64.9458L279.895 20.6315C275.63 18.2656 271.522 16.7184 265.528 16.7184ZM265.528 20.9948C269.277 20.9948 272.038 21.8134 274.597 23.1779L270.826 50.9308C267.055 56.9369 262.79 60.85 257.223 60.85C251.229 60.85 247.548 56.1182 247.548 47.1101C247.458 36.0089 252.419 20.9948 265.528 20.9948Z" fill="#D7B0D8"/>
<path d="M284.639 59.3374C283.553 59.3374 282.648 58.953 281.924 58.1841C281.24 57.4152 280.898 56.4541 280.898 55.3008C280.898 53.9339 281.32 52.7806 282.165 51.8408C283.05 50.9011 284.116 50.4312 285.363 50.4312C286.489 50.4312 287.394 50.8156 288.078 51.5845C288.802 52.3534 289.164 53.3145 289.164 54.4678C289.164 55.8347 288.721 56.9881 287.836 57.9278C286.951 58.8676 285.886 59.3374 284.639 59.3374Z" fill="#D7B0D8"/>
</svg>
