<?xml version="1.0" encoding="UTF-8" standalone="no"?>
<!DOCTYPE svg PUBLIC "-//W3C//DTD SVG 1.1//EN" "http://www.w3.org/Graphics/SVG/1.1/DTD/svg11.dtd">
<svg width="100%" height="100%" viewBox="0 0 3415 301" version="1.1" xmlns="http://www.w3.org/2000/svg" xmlns:xlink="http://www.w3.org/1999/xlink" xml:space="preserve" xmlns:serif="http://www.serif.com/" style="fill-rule:evenodd;clip-rule:evenodd;stroke-linejoin:round;stroke-miterlimit:2;">
    <g transform="matrix(1,0,0,1,11.4682,-57.5177)">
        <g transform="matrix(1,0,0,1,42.156,-794.505)">
            <g transform="matrix(1.00522,0,0,1.04641,-30.5261,132.516)">
                <path d="M-22.978,936.01C-15.96,935.77 47.213,908.062 48.336,907.61C56.69,904.251 74.344,921.302 139.788,888.58C153.361,881.793 187.037,863.952 199.524,869.912C211.831,875.786 277.18,860.204 296.596,869.912C327.002,885.115 395.893,884.191 401.135,884.846C429.657,889.88 443.956,893.207 458.784,892.635C468.406,892.264 494.047,894.274 500.155,875.949C500.976,873.488 560.204,872.487 560.204,872.487C560.204,872.487 601.292,850.32 617.679,843.777C646.628,832.219 646.651,836.141 699.888,846.806C706.77,848.185 864.437,844.122 879.026,858.712C882.834,862.519 883.918,858.551 946.23,862.445C948.978,862.617 947.851,864.336 968.631,888.58C1115.84,895.94 1119.83,903.537 1125.44,892.313C1144.11,854.966 1155.28,872.468 1212.59,869.452C1256.31,811.161 1290.46,855.733 1330.78,795.242C1335.32,788.441 1356.35,787.625 1383.05,765.373C1453.64,706.554 1458.08,780.387 1659.33,825.11C1711.44,836.689 1734.67,925.724 1916.95,873.646C1966.26,863.784 1965.38,858.679 1987.88,866.179C2036.28,882.31 2039.69,864.081 2088.69,888.58C2100.66,894.568 2255.61,882.204 2267.9,869.912C2305.02,832.787 2355.8,904.363 2476.98,843.777C2494.03,835.248 2487.61,796.849 2551.65,784.041C2623.67,769.636 2619.25,759.016 2689.79,735.505C2716.18,726.707 2711.36,718.496 2738.32,713.104C2759.77,708.814 2754.52,697.96 2775.66,694.436C2798.82,690.576 2802.64,679.381 2816.73,698.17C2893.53,800.575 2943.12,750.987 2951.14,742.972C3002.59,691.513 3074.36,748.442 3155.91,789.638C3237.7,837.387 3282.04,836.115 3282.04,836.115L3373.16,899.65L3373.48,975.049L-22.61,974.944L-22.978,936.01Z" style="fill:rgb(245,245,245);"/>
            </g>
        </g>
    </g>
</svg>
